<?xml version="1.0" encoding="UTF-8"?><svg id="a" xmlns="http://www.w3.org/2000/svg" xmlns:xlink="http://www.w3.org/1999/xlink" viewBox="0 0 1024 920"><defs><linearGradient id="b" x1="344.04" y1="5312.42" x2="623.7" y2="4545.76" gradientTransform="translate(0 5402) scale(1 -1)" gradientUnits="userSpaceOnUse"><stop offset="0" stop-color="#479f5b"/><stop offset="1" stop-color="#18381f"/></linearGradient><linearGradient id="c" x1="258.8" y1="5604.96" x2="885.62" y2="4216.26" gradientTransform="translate(0 5402) scale(1 -1)" gradientUnits="userSpaceOnUse"><stop offset="0" stop-color="#58b460"/><stop offset="1" stop-color="#4fa85f"/></linearGradient></defs><path d="M614,460v-204h-204v204h-204v174.86c0,16.1,13.04,29.14,29.14,29.14h174.86v174.86c0,16.1,13.04,29.14,29.14,29.14h145.71c16.1,0,29.14-13.04,29.14-29.14v-174.86h174.86c16.1,0,29.14-13.04,29.14-29.14v-174.86s-204,0-204,0Z" fill="url(#b)"/><path d="M818,81.14v174.86h-204V81.14c0-16.1,13.04-29.14,29.14-29.14h145.71c16.1,0,29.14,13.04,29.14,29.14ZM992.86,256h-174.86v204h174.86c16.1,0,29.14-13.04,29.14-29.14v-145.71c0-16.1-13.04-29.14-29.14-29.14ZM380.86,52h-145.71c-16.1,0-29.14,13.04-29.14,29.14v174.86h204V81.14c0-16.1-13.04-29.14-29.14-29.14ZM2,285.14v145.71c0,16.1,13.04,29.14,29.14,29.14h174.86v-204H31.14c-16.1,0-29.14,13.04-29.14,29.14Z" fill="url(#c)"/></svg>